<?xml version="1.0" standalone="no"?>
<!DOCTYPE svg PUBLIC "-//W3C//DTD SVG 20010904//EN"
 "http://www.w3.org/TR/2001/REC-SVG-20010904/DTD/svg10.dtd">
<svg version="1.0" xmlns="http://www.w3.org/2000/svg"
 width="512.000000pt" height="512.000000pt" viewBox="0 0 512.000000 512.000000"
 preserveAspectRatio="xMidYMid meet">

<g transform="translate(0.000000,512.000000) scale(0.100000,-0.100000)"
fill="#000000" stroke="none">
<path d="M1330 2895 c0 -481 2 -875 5 -875 3 0 84 42 180 93 l175 92 0 448 c0
246 3 447 6 447 5 0 285 -157 689 -387 116 -66 300 -171 410 -233 110 -63 226
-128 258 -146 l57 -33 0 222 0 223 -885 512 c-486 282 -887 512 -890 512 -3 0
-5 -394 -5 -875z"/>
<path d="M4093 3594 l-183 -106 0 -594 0 -594 -62 32 c-35 18 -66 34 -71 36
-4 2 -6 -96 -5 -219 l3 -222 249 -144 c137 -79 250 -142 252 -140 2 2 3 466 2
1030 l-3 1026 -182 -105z"/>
<path d="M670 2610 l0 -990 83 49 c45 26 126 74 180 105 l97 57 0 564 0 565
76 -45 c42 -25 78 -45 80 -45 2 0 3 100 2 222 l-3 223 -254 142 c-139 79 -255
143 -257 143 -2 0 -4 -445 -4 -990z"/>
<path d="M3430 3202 l-175 -109 -3 -477 c-2 -394 -5 -477 -16 -473 -7 3 -322
183 -699 401 -377 218 -688 396 -691 396 -3 0 -6 -98 -6 -217 l0 -218 48 -26
c40 -21 409 -234 1517 -872 l200 -115 3 454 c1 250 1 659 0 910 l-3 455 -175
-109z"/>
</g>
</svg>
