<?xml version="1.0" standalone="no"?>
<!DOCTYPE svg PUBLIC "-//W3C//DTD SVG 20010904//EN"
 "http://www.w3.org/TR/2001/REC-SVG-20010904/DTD/svg10.dtd">
<svg version="1.0" xmlns="http://www.w3.org/2000/svg"
 width="3508.000000pt" height="627.000000pt" viewBox="0 0 3508.000000 627.000000"
 preserveAspectRatio="xMidYMid meet">

<g transform="translate(0.000000,627.000000) scale(0.100000,-0.100000)"
fill="#fff" stroke="none">
<path d="M2257 4972 c-8 -400 -9 -3222 -2 -3222 3 0 92 46 198 101 106 56 270
142 365 192 l172 90 0 909 c0 807 2 909 15 904 8 -3 654 -368 1435 -811 781
-443 1423 -805 1425 -805 3 0 5 201 5 448 l0 447 -108 62 c-59 33 -307 177
-552 319 -245 141 -589 340 -765 442 -176 102 -446 258 -600 347 -154 89 -425
246 -602 348 -178 103 -468 271 -645 373 -178 103 -326 188 -329 190 -3 2 -9
-149 -12 -334z"/>
<path d="M8065 5066 c-88 -51 -254 -147 -370 -214 l-210 -121 -3 -1200 c-1
-661 -5 -1201 -8 -1201 -3 0 -64 31 -135 70 -72 38 -135 70 -140 70 -5 0 -9
-177 -9 -444 l0 -444 483 -278 c265 -152 499 -288 519 -301 21 -12 40 -23 43
-23 3 0 5 941 5 2090 0 1150 -3 2090 -7 2089 -5 0 -80 -42 -168 -93z"/>
<path d="M920 2955 l0 -2004 103 60 c56 33 220 128 365 212 l262 152 0 1137
c0 823 3 1138 11 1138 6 0 71 -36 144 -80 73 -44 140 -82 149 -86 15 -6 16 31
16 443 l0 449 -107 61 c-126 71 -431 242 -726 407 -114 64 -210 116 -212 116
-3 0 -5 -902 -5 -2005z"/>
<path d="M6715 4277 c-82 -51 -222 -137 -310 -192 -88 -54 -184 -114 -212
-132 l-53 -34 -2 -962 -3 -962 -1280 738 c-1521 876 -1547 891 -1557 895 -5 2
-7 -196 -6 -440 l3 -443 430 -247 c237 -136 500 -287 585 -336 158 -91 1480
-852 2045 -1177 433 -249 514 -295 520 -295 3 0 5 828 5 1840 0 1012 -3 1840
-7 1840 -5 0 -75 -42 -158 -93z"/>
<path d="M22020 4271 c-331 -72 -520 -347 -445 -646 21 -85 94 -225 169 -327
l64 -86 -81 -48 c-327 -189 -478 -415 -478 -714 0 -195 61 -339 201 -481 124
-125 253 -190 449 -224 109 -19 344 -19 454 0 159 28 316 99 439 199 l55 45
77 -65 c91 -75 200 -150 273 -188 29 -14 54 -26 57 -26 12 0 288 364 278 368
-23 7 -216 141 -297 206 l-84 67 36 57 c20 31 52 92 70 134 32 78 103 291 103
313 0 9 -379 105 -416 105 -5 0 -22 -39 -38 -87 -32 -103 -66 -183 -76 -183
-7 0 -340 434 -340 444 0 3 40 33 90 66 252 173 352 325 352 535 0 244 -151
437 -407 522 -71 23 -98 26 -250 29 -137 3 -186 0 -255 -15z m377 -342 c51
-25 98 -83 114 -142 14 -52 -2 -116 -43 -174 -29 -39 -199 -183 -218 -183 -4
0 -35 30 -68 68 -133 150 -176 237 -153 312 30 101 125 154 260 145 37 -3 83
-14 108 -26z m-97 -1320 c129 -159 235 -294 235 -299 0 -15 -105 -89 -178
-126 -131 -67 -267 -82 -390 -44 -78 24 -163 96 -197 165 -69 143 -31 328 93
458 50 52 169 137 192 137 6 0 116 -131 245 -291z"/>
<path d="M9457 4193 c-4 -3 -7 -550 -7 -1215 l0 -1208 230 0 230 0 2 815 3
815 65 -83 c36 -46 321 -413 635 -815 l569 -732 143 0 143 0 0 1215 0 1215
-230 0 -230 0 0 -751 0 -752 -62 79 c-401 510 -1086 1375 -1106 1397 l-26 27
-176 0 c-97 0 -180 -3 -183 -7z"/>
<path d="M12700 4128 c-18 -40 -63 -140 -100 -223 -37 -82 -117 -261 -179
-397 -171 -381 -325 -724 -416 -928 -81 -181 -212 -472 -313 -698 l-51 -112
250 2 250 3 102 225 102 225 635 3 635 2 100 -226 c55 -125 105 -228 110 -230
6 -3 119 -3 252 -2 l241 3 -160 355 c-87 195 -194 434 -237 530 -43 96 -129
288 -191 425 -274 610 -328 731 -411 915 l-87 195 -249 3 -250 2 -33 -72z
m307 -501 c12 -28 72 -167 133 -307 120 -273 279 -637 287 -657 4 -10 -88 -13
-441 -13 -367 0 -446 2 -446 13 0 13 27 76 262 612 60 138 124 285 141 327 18
43 34 78 37 78 3 0 15 -24 27 -53z"/>
<path d="M14570 2985 l0 -1216 578 4 c551 3 581 5 675 26 312 70 546 222 703
457 144 216 207 438 207 724 0 354 -106 644 -318 869 -123 130 -260 217 -435
275 -202 67 -224 69 -847 73 l-563 5 0 -1217z m1185 752 c269 -76 451 -281
510 -576 14 -65 16 -115 12 -220 -6 -159 -21 -222 -83 -347 -104 -213 -291
-341 -544 -374 -50 -6 -197 -10 -355 -8 l-270 3 -3 773 -2 773 337 -3 c279 -4
348 -7 398 -21z"/>
<path d="M17087 4193 c-4 -3 -7 -550 -7 -1215 l0 -1208 225 0 225 0 0 1209 0
1208 -82 6 c-109 9 -353 9 -361 0z"/>
<path d="M18802 4187 c-6 -7 -15 -24 -21 -38 -5 -14 -50 -115 -99 -225 -50
-109 -181 -401 -292 -649 -111 -247 -241 -538 -290 -645 -229 -510 -380 -848
-380 -854 0 -4 111 -5 247 -4 l247 3 102 225 103 225 634 3 634 2 103 -230
104 -230 248 0 c136 0 248 2 248 4 0 2 -62 143 -139 313 -76 169 -198 441
-271 603 -72 162 -160 358 -195 435 -35 77 -122 273 -195 435 -73 162 -167
372 -209 465 l-77 170 -246 3 c-192 2 -248 0 -256 -11z m418 -882 c67 -154
157 -360 201 -459 43 -98 79 -182 79 -187 0 -5 -198 -9 -445 -9 -289 0 -445 3
-445 10 0 5 31 81 69 167 79 180 183 419 278 638 36 83 72 166 81 185 l15 35
23 -50 c12 -27 77 -176 144 -330z"/>
<path d="M24507 4003 c-4 -108 -7 -654 -7 -1215 l0 -1018 230 0 230 0 2 816 3
815 570 -732 c314 -403 599 -770 635 -816 l65 -83 142 0 143 0 0 1215 0 1215
-230 0 -230 0 0 -751 0 -750 -540 683 c-297 376 -565 713 -595 751 l-55 67
-178 0 -179 0 -6 -197z"/>
<path d="M27771 4178 c-12 -29 -71 -162 -211 -473 -62 -137 -152 -338 -200
-445 -48 -107 -176 -393 -285 -635 -109 -242 -239 -533 -290 -648 l-93 -207
248 0 247 0 105 227 104 228 632 3 632 2 19 -37 c10 -21 56 -121 101 -223 45
-102 86 -188 89 -193 4 -4 118 -6 253 -5 l246 3 -45 100 c-156 348 -317 707
-393 875 -48 107 -136 303 -195 435 -59 132 -178 398 -265 590 -87 193 -165
367 -173 388 l-16 37 -251 0 c-250 0 -250 0 -259 -22z m439 -903 c62 -143 148
-339 190 -435 43 -96 76 -178 73 -182 -5 -9 -877 -11 -885 -2 -3 3 14 49 37
102 24 53 114 259 200 457 86 198 168 385 181 415 l25 55 33 -75 c18 -41 84
-192 146 -335z"/>
<path d="M30489 4133 c-17 -38 -77 -171 -134 -298 -57 -126 -135 -300 -173
-385 -111 -248 -316 -704 -505 -1125 -96 -214 -191 -425 -211 -469 -20 -43
-36 -80 -36 -82 0 -2 111 -4 248 -4 l247 0 104 230 105 230 634 -2 635 -3 101
-227 101 -228 248 0 c136 0 247 4 247 9 0 4 -15 41 -34 82 -18 41 -72 160
-119 264 -47 105 -175 390 -285 635 -109 245 -249 555 -309 690 -61 135 -161
359 -224 498 l-113 252 -248 0 -249 0 -30 -67z m406 -738 c271 -623 315 -725
315 -735 0 -7 -142 -10 -445 -10 -245 0 -445 3 -445 6 0 3 93 218 206 477 113
260 213 489 221 510 9 21 19 35 23 30 4 -4 60 -129 125 -278z"/>
<path d="M32310 3985 l0 -215 595 0 c327 0 595 -3 595 -7 0 -5 -114 -168 -253
-363 -139 -195 -414 -581 -610 -857 l-357 -503 0 -135 0 -135 945 0 945 0 0
215 0 215 -625 0 c-344 0 -625 3 -625 6 0 4 675 961 1122 1589 l128 180 0 106
0 106 -82 6 c-46 4 -464 7 -930 7 l-848 0 0 -215z"/>
</g>
</svg>
